#!OML:ASF G:\JayActor3\Patient Classification 1\Patient 1\Session 6\male.ASF
:FULLY-SPECIFIED
:DEGREES
1518
root 11.249 14.7823 -2.88488 36.0509 -52.5166 12.4627
lowerback 54.8668 -2.87083 16.1959
upperback 6.58931 5.48092 3.37862
thorax -12.403 1.45243 -5.69662
lowerneck 2.00798 -0.898094 -1.2345
upperneck -42.2975 -7.38286 -11.7659
head -15.9965 -2.32984 -3.78751
rclavicle 6.04305e-014 3.02153e-014
rhumerus 53.6323 -4.74745 -65.4499
rradius 26.5675
rwrist 36.4218
rhand -58.909 18.1098
rfingers 7.12502
rthumb -31.1126 -9.27012
lclavicle 6.04305e-014 3.02153e-014
lhumerus -45.3432 8.21319 80.7334
lradius 94.1244
lwrist -5.31273
lhand -54.6259 -35.6229
lfingers 7.12502
lthumb -27.0223 -7.53599
rfemur -97.7723 -12.8813 26.5797
rtibia 71.7112
rfoot -22.2721 -11.006
rtoes 9.13714
lfemur -86.3726 -5.50073 -29.5209
ltibia 58.4039
lfoot -15.0368 -3.1509
ltoes 8.62743
1519
root 11.2542 14.7746 -2.88353 36.011 -52.4474 12.4791
lowerback 54.9099 -2.91122 16.232
upperback 6.59606 5.46256 3.38577
thorax -12.3964 1.44406 -5.6917
lowerneck 2.02993 -0.909057 -1.23437
upperneck -42.4021 -7.38986 -11.6916
head -16.0558 -2.34185 -3.75867
rclavicle -9.54166e-015 2.5842e-014
rhumerus 53.73 -4.86707 -65.5497
rradius 26.4586
rwrist 36.5206
rhand -58.848 17.8988
rfingers 7.12502
rthumb -31.0545 -9.49229
lclavicle -9.54166e-015 2.5842e-014
lhumerus -45.3801 8.25315 80.7019
lradius 94.1441
lwrist -5.27896
lhand -54.6248 -35.5876
lfingers 7.12502
lthumb -27.0213 -7.50053
rfemur -97.8163 -12.9471 26.5757
rtibia 71.8205
rfoot -22.313 -10.9986
rtoes 9.09948
lfemur -86.4104 -5.56499 -29.5219
ltibia 58.5033
lfoot -15.0776 -3.15029
ltoes 8.59097
1520
root 11.2593 14.7666 -2.88222 35.9664 -52.3784 12.5002
lowerback 54.9545 -2.95237 16.2653
upperback 6.59917 5.4431 3.39326
thorax -12.3949 1.43482 -5.68489
lowerneck 2.04833 -0.918964 -1.23588
upperneck -42.4991 -7.39578 -11.6217
head -16.1105 -2.35278 -3.73112
rclavicle 1.27222e-014 -3.81667e-014
rhumerus 53.8277 -4.98825 -65.6652
rradius 26.3563
rwrist 36.6314
rhand -58.7891 17.7234
rfingers 7.12502
rthumb -30.9983 -9.67839
lclavicle 1.27222e-014 -3.81667e-014
lhumerus -45.4147 8.29608 80.6692
lradius 94.1544
lwrist -5.23899
lhand -54.6166 -35.5749
lfingers 7.12502
lthumb -27.0134 -7.4866
rfemur -97.8595 -13.0141 26.5673
rtibia 71.9307
rfoot -22.3595 -10.988
rtoes 9.08327
lfemur -86.4475 -5.62792 -29.5291
ltibia 58.603
lfoot -15.1171 -3.15609
ltoes 8.56974
1521
root 11.264 14.7587 -2.88108 35.9143 -52.3153 12.5268
lowerback 55.0094 -2.98939 16.2873
upperback 6.59596 5.42544 3.40177
thorax -12.4035 1.4255 -5.67303
lowerneck 2.06357 -0.929351 -1.23816
upperneck -42.5884 -7.40241 -11.5541
head -16.1604 -2.36387 -3.70383
rclavicle 1.43125e-013 5.56597e-014
rhumerus 53.9202 -5.10832 -65.7978
rradius 26.2628
rwrist 36.753
rhand -58.7288 17.5612
rfingers 7.12502
rthumb -30.9409 -9.85155
lclavicle 1.43125e-013 5.56597e-014
lhumerus -45.4499 8.34504 80.6363
lradius 94.1554
lwrist -5.19794
lhand -54.6041 -35.5851
lfingers 7.12502
lthumb -27.0014 -7.49498
rfemur -97.8974 -13.0775 26.5513
rtibia 72.0398
rfoot -22.4099 -10.9785
rtoes 9.06666
lfemur -86.4795 -5.6838 -29.5452
ltibia 58.7028
lfoot -15.1586 -3.17141
ltoes 8.58196
1522
root 11.2685 14.7511 -2.88018 35.8675 -52.2538 12.5425
lowerback 55.0751 -3.02417 16.3061
upperback 6.5859 5.41195 3.41133
thorax -12.4213 1.41681 -5.66028
lowerneck 2.07563 -0.941105 -1.24105
upperneck -42.6722 -7.41007 -11.4851
head -16.2065 -2.37576 -3.67517
rclavicle 6.36111e-015 -1.90833e-014
rhumerus 54.0056 -5.22887 -65.9504
rradius 26.1795
rwrist 36.8897
rhand -58.6674 17.3995
rfingers 7.12502
rthumb -30.8823 -10.0244
lclavicle 6.36111e-015 -1.90833e-014
lhumerus -45.4889 8.40152 80.6012
lradius 94.1509
lwrist -5.15829
lhand -54.5877 -35.6215
lfingers 7.12502
lthumb -26.9857 -7.52886
rfemur -97.9278 -13.135 26.5414
rtibia 72.1459
rfoot -22.4616 -10.9699
rtoes 9.04397
lfemur -86.5085 -5.72994 -29.5586
ltibia 58.8033
lfoot -15.2014 -3.19131
ltoes 8.59816
1523
root 11.2728 14.7435 -2.87964 35.8363 -52.1956 12.5476
lowerback 55.1344 -3.05174 16.3185
upperback 6.57336 5.40286 3.42283
thorax -12.442 1.40975 -5.64526
lowerneck 2.08156 -0.954722 -1.24186
upperneck -42.7517 -7.41929 -11.4147
head -16.249 -2.38933 -3.64566
rclavicle 3.81667e-014 -4.69132e-014
rhumerus 54.0844 -5.34308 -66.1117
rradius 26.1076
rwrist 37.0205
rhand -58.6091 17.2225
rfingers 7.12502
rthumb -30.8268 -10.2119
lclavicle 3.81667e-014 -4.69132e-014
lhumerus -45.5272 8.46481 80.5646
lradius 94.1398
lwrist -5.12183
lhand -54.5725 -35.6573
lfingers 7.12502
lthumb -26.9712 -7.56246
rfemur -97.9643 -13.1827 26.5384
rtibia 72.2498
rfoot -22.511 -10.9648
rtoes 9.0174
lfemur -86.5479 -5.76855 -29.566
ltibia 58.9056
lfoot -15.243 -3.21525
ltoes 8.62944
1524
root 11.2772 14.7358 -2.87906 35.8171 -52.1359 12.5517
lowerback 55.1799 -3.07872 16.3318
upperback 6.55767 5.39345 3.43449
thorax -12.465 1.40244 -5.63107
lowerneck 2.08612 -0.97022 -1.24059
upperneck -42.8311 -7.431 -11.3427
head -16.2914 -2.40481 -3.61535
rclavicle 5.08889e-014 4.33351e-014
rhumerus 54.1539 -5.44654 -66.2717
rradius 26.0481
rwrist 37.1347
rhand -58.5547 16.9942
rfingers 7.12502
rthumb -30.7748 -10.45
lclavicle 5.08889e-014 4.33351e-014
lhumerus -45.5693 8.53403 80.5269
lradius 94.1241
lwrist -5.08515
lhand -54.5616 -35.6853
lfingers 7.12502
lthumb -26.9608 -7.58886
rfemur -98.0144 -13.2318 26.5427
rtibia 72.3523
rfoot -22.557 -10.9606
rtoes 8.97175
lfemur -86.6007 -5.81186 -29.5679
ltibia 59.0088
lfoot -15.2823 -3.2382
ltoes 8.67748
